<svg width="79" height="79" viewBox="0 0 79 79" fill="none" xmlns="http://www.w3.org/2000/svg">
<rect width="78.9333" height="78.9333" fill="#FFEDD5"/>
<path d="M18.1333 16C16.9536 16 16 16.9536 16 18.1333C16 19.3131 16.9536 20.2667 18.1333 20.2667H60.8C61.9797 20.2667 62.9333 19.3131 62.9333 18.1333C62.9333 16.9536 61.9797 16 60.8 16H18.1333ZM48 24.5333C47.8208 24.5333 47.6622 24.5948 47.4958 24.6375L38.875 26.7875C37.9918 27.0456 37.3333 27.8315 37.3333 28.8V41.6H35.2C31.6651 41.6 28.8 44.4651 28.8 48C28.8 51.5349 31.6651 54.4 35.2 54.4C38.7349 54.4 41.6 51.5349 41.6 48V34.775L48.4792 32.9708C49.42 32.749 50.1333 31.9424 50.1333 30.9333V26.6667C50.1333 25.4891 49.1776 24.5333 48 24.5333ZM18.1333 26.6667C16.9536 26.6667 16 27.6203 16 28.8C16 29.9797 16.9536 30.9333 18.1333 30.9333H33.0667V28.8C33.0667 28.0533 33.2007 27.3365 33.4375 26.6667H18.1333ZM54.4 26.6667V30.9333H60.8C61.9797 30.9333 62.9333 29.9797 62.9333 28.8C62.9333 27.6203 61.9797 26.6667 60.8 26.6667H54.4ZM18.1333 37.3333C16.9536 37.3333 16 38.2869 16 39.4667C16 40.6464 16.9536 41.6 18.1333 41.6H26.7083C28.2465 39.5627 30.4768 38.0749 33.0667 37.5458V37.3333H18.1333ZM48.6583 37.3333L45.8667 38.0667V41.6H60.8C61.9797 41.6 62.9333 40.6464 62.9333 39.4667C62.9333 38.2869 61.9797 37.3333 60.8 37.3333H48.6583ZM18.1333 48C16.9536 48 16 48.9536 16 50.1333C16 51.3131 16.9536 52.2667 18.1333 52.2667H25.4458C24.8656 50.9611 24.5333 49.5211 24.5333 48H18.1333ZM45.8667 48C45.8667 49.5211 45.5344 50.9611 44.9542 52.2667H60.8C61.9797 52.2667 62.9333 51.3131 62.9333 50.1333C62.9333 48.9536 61.9797 48 60.8 48H45.8667ZM18.1333 58.6667C16.9536 58.6667 16 59.6203 16 60.8C16 61.9797 16.9536 62.9333 18.1333 62.9333H60.8C61.9797 62.9333 62.9333 61.9797 62.9333 60.8C62.9333 59.6203 61.9797 58.6667 60.8 58.6667H18.1333Z" fill="#7C2D12"/>
</svg>
